<?xml version="1.0" encoding="UTF-8"?>
<svg version="1.1" xmlns="http://www.w3.org/2000/svg" width="48" height="48">
<path d="M0 0 C15.84 0 31.68 0 48 0 C48 15.84 48 31.68 48 48 C32.16 48 16.32 48 0 48 C0 32.16 0 16.32 0 0 Z " fill="#FE9395" transform="translate(0,0)"/>
<path d="M0 0 C2.475 0.99 2.475 0.99 5 2 C5 10.58 5 19.16 5 28 C3.35 28.66 1.7 29.32 0 30 C-0.99 29.34 -1.98 28.68 -3 28 C-3.38818359 25.41796875 -3.38818359 25.41796875 -3.3984375 22.1875 C-3.40230469 21.02992187 -3.40617187 19.87234375 -3.41015625 18.6796875 C-3.39855469 17.46539063 -3.38695313 16.25109375 -3.375 15 C-3.38660156 13.78570312 -3.39820312 12.57140625 -3.41015625 11.3203125 C-3.40628906 10.16273437 -3.40242188 9.00515625 -3.3984375 7.8125 C-3.39505371 6.74644531 -3.39166992 5.68039062 -3.38818359 4.58203125 C-3.26008301 3.72996094 -3.13198242 2.87789062 -3 2 C-2.01 1.34 -1.02 0.68 0 0 Z " fill="#FFFBFB" transform="translate(23,9)"/>
<path d="M0 0 C5 2 5 2 8 4 C8.38717284 6.73121929 8.55524168 9.14103417 8.5625 11.875 C8.59923828 12.59558594 8.63597656 13.31617188 8.67382812 14.05859375 C8.69140625 16.1796875 8.69140625 16.1796875 8 20 C3.35825545 24 3.35825545 24 0 24 C0 16.08 0 8.16 0 0 Z " fill="#FFF8F8" transform="translate(29,12)"/>
<path d="M0 0 C0 7.92 0 15.84 0 24 C-5 22 -5 22 -8 20 C-8.38717284 17.26878071 -8.55524168 14.85896583 -8.5625 12.125 C-8.59923828 11.40441406 -8.63597656 10.68382812 -8.67382812 9.94140625 C-8.69140625 7.8203125 -8.69140625 7.8203125 -8 4 C-3.35825545 0 -3.35825545 0 0 0 Z " fill="#FEF9F9" transform="translate(19,12)"/>
</svg>
