<svg width="124" height="94" viewBox="0 0 124 94" fill="none" xmlns="http://www.w3.org/2000/svg">
<path d="M93.7083 7.2042L93.7099 7.20259C99.9837 0.914401 110.17 0.91208 116.463 7.2042C122.756 13.4972 122.751 23.6826 116.466 29.9391L116.463 29.9423L60.3837 86.0211L60.3593 86.0455L60.3358 86.0707C60.1057 86.3172 59.9039 86.5331 59.707 86.7299L59.7038 86.7332C56.5702 89.8811 52.4493 91.4444 48.3138 91.4444C44.1811 91.4444 40.0735 89.8828 36.9206 86.73L36.8962 86.7056L36.871 86.6821C36.6948 86.5176 36.5188 86.3304 36.3412 86.1255L36.2944 86.0716L36.244 86.0211L7.40715 57.1843L7.40553 57.1827C1.11734 50.9088 1.11502 40.7222 7.40715 34.4301L7.40876 34.4284C13.6824 28.1405 23.8685 28.1379 30.1607 34.4294C30.1609 34.4296 30.1611 34.4298 30.1614 34.4301L46.8989 51.1838L48.3131 52.5993L49.728 51.1844L93.7083 7.2042Z" stroke="#97CE00" stroke-width="4"/>
</svg>
